<svg width="93" height="58" viewBox="0 0 93 58" fill="none" xmlns="http://www.w3.org/2000/svg">
<path d="M46.4354 0C20.7874 0 -0.00671193 21.1902 1.62519e-06 47.3216H11.8629C11.8629 27.7382 27.219 11.8606 46.4354 11.8606C65.6519 11.8606 81.008 27.7382 81.008 47.3216H92.8708C92.8753 21.1902 72.0812 0 46.4354 0Z" fill="#8F8E8E" style="fill:#8F8E8E;fill:color(display-p3 0.5608 0.5569 0.5569);fill-opacity:1;"/>
<path d="M44.4494 47.2872C44.4494 44.4491 43.322 41.7271 41.3151 39.7203C39.3082 37.7134 36.5863 36.5859 33.7482 36.5859C30.91 36.5859 28.1881 37.7134 26.1812 39.7203C24.1743 41.7271 23.0469 44.4491 23.0469 47.2872L33.7482 47.2872H44.4494Z" fill="#8F8E8E" style="fill:#8F8E8E;fill:color(display-p3 0.5608 0.5569 0.5569);fill-opacity:1;"/>
<path d="M69.7893 47.2872C69.7893 44.4491 68.6618 41.7271 66.6549 39.7203C64.6481 37.7134 61.9262 36.5859 59.088 36.5859C56.2498 36.5859 53.5279 37.7134 51.5211 39.7203C49.5142 41.7271 48.3867 44.4491 48.3867 47.2872L59.088 47.2872H69.7893Z" fill="#8F8E8E" style="fill:#8F8E8E;fill:color(display-p3 0.5608 0.5569 0.5569);fill-opacity:1;"/>
</svg>
